<svg id="flat" height="512" viewBox="0 0 512 512" width="512" xmlns="http://www.w3.org/2000/svg"><path d="m336 424h104a32 32 0 0 1 32 32 32 32 0 0 1 -32 32h-104z" fill="#de9400"/><path d="m336 488h-264a32 32 0 0 1 -32-32 32 32 0 0 1 32-32h264z" fill="#f6bb00"/><path d="m440 157.25v266.75h-368v-368a32.004 32.004 0 0 1 32-32h202.75a32.05751 32.05751 0 0 1 22.62012 9.37l101.25976 101.26a32.06227 32.06227 0 0 1 9.37012 22.62z" fill="#548aff"/><g fill="#3b57c4"><path d="m232 88h48v16h-48z"/><path d="m160 88h48v16h-48z"/><path d="m192 136h88v16h-88z"/><path d="m120 136h48v16h-48z"/><path d="m352 184h40v16h-40z"/><path d="m264 184h64v16h-64z"/><path d="m120 184h128v16h-128z"/><path d="m296 232h96v16h-96z"/><path d="m200 232h72v16h-72z"/><path d="m120 232h56v16h-56z"/><path d="m344 280h48v16h-48z"/><path d="m224 280h96v16h-96z"/><path d="m120 280h80v16h-80z"/></g><path d="m437.12012 144h-85.12012a32.00409 32.00409 0 0 1 -32-32l.39014-84.93994a31.73559 31.73559 0 0 1 8.98 6.30994l101.25974 101.26a31.82824 31.82824 0 0 1 6.49024 9.37z" fill="#7dafff"/><path d="m320 376h16v16h-16z" fill="#3b57c4"/><path d="m120 376h120v16h-120z" fill="#3b57c4"/><path d="m256 376h16v16h-16z" fill="#3b57c4"/><path d="m288 376h16v16h-16z" fill="#3b57c4"/></svg>